<svg width="24" height="24" viewBox="0 0 24 24" fill="none" xmlns="http://www.w3.org/2000/svg">
<path fill-rule="evenodd" clip-rule="evenodd" d="M5 4C3.34315 4 2 5.34315 2 7V17C2 18.6569 3.34315 20 5 20H12V18H5C4.44772 18 4 17.5523 4 17V7C4 6.44772 4.44772 6 5 6H7.78388C8.01539 6 8.23973 6.08033 8.41862 6.22727L10.8119 8.19318C11.3486 8.63402 12.0216 8.875 12.7161 8.875H19C19.5523 8.875 20 9.32272 20 9.875V10H22V9.875C22 8.21815 20.6569 6.875 19 6.875H12.7161C12.4846 6.875 12.2603 6.79467 12.0814 6.64773L9.6881 4.68182C9.15142 4.24098 8.47841 4 7.78388 4H5Z" fill="#64748B"/>
<path d="M18.96 17.4339 L13.7893 15.5736 M18.96 17.4339 L24.1323 15.5798 M18.96 17.4339 V23.6099 M14.9783 22.2747 L18.3423 23.462 C18.5712 23.5428 18.6857 23.5832 18.8031 23.5993 C18.9072 23.6135 19.0128 23.6135 19.1169 23.5993 C19.2343 23.5832 19.3488 23.5428 19.5777 23.462 L22.9417 22.2747 C23.3875 22.1174 23.6104 22.0387 23.775 21.8976 C23.9203 21.773 24.0326 21.6144 24.1018 21.4359 C24.18 21.2337 24.18 20.9973 24.18 20.5245 V16.3955 C24.18 15.9227 24.18 15.6864 24.1018 15.4842 C24.0326 15.3057 23.9203 15.1471 23.775 15.0225 C23.6104 14.8814 23.3875 14.8027 22.9417 14.6453 L19.5777 13.4581 C19.3488 13.3773 19.2343 13.3369 19.1169 13.3208 C19.0128 13.3066 18.9072 13.3066 18.8031 13.3208 C18.6857 13.3369 18.5712 13.3773 18.3423 13.4581 L14.9783 14.6453 C14.5324 14.8027 14.3095 14.8814 14.145 15.0225 C13.9996 15.1471 13.8874 15.3057 13.8183 15.4842 C13.74 15.6864 13.74 15.9227 13.74 16.3955 V20.5245 C13.74 20.9973 13.74 21.2337 13.8183 21.4359 C13.8874 21.6144 13.9996 21.773 14.145 21.8976 C14.3095 22.0387 14.5324 22.1174 14.9783 22.2747 Z" stroke="#000000" stroke-width="1.74" stroke-linecap="round" stroke-linejoin="round" fill="#F59E0B"/>
</svg>
