<?xml version="1.0" encoding="utf-8"?>
<svg width="48" height="48" viewBox="0 0 24 24" xmlns="http://www.w3.org/2000/svg">
  <path d="M 16.842 4.158 L 14.737 6.263 L 2.105 6.263 L 2.105 19.126 L 14.737 19.019 L 14.737 6.263 L 16.842 4.154 L 16.842 18.895 C 16.842 20.053 15.895 21 14.737 21 L 2.105 21 C 0.947 21 0 20.053 0 18.895 L 0 6.263 C 0 5.105 0.947 4.158 2.105 4.158 L 16.842 4.158 Z" fill="#64748B" transform="translate(3 1)"/>
  <path d="m9.47368421 14.6842105v2.1052632h-5.26315789v-2.1052632z" fill="#64748B" transform="translate(3 1)"/>
  <path d="m12.6315789 11.5263158v2.1052631h-8.42105258v-2.1052631z" fill="#64748B" transform="translate(3 1)"/>
  <path d="m12.6315789 8.36842105v2.10526315h-8.42105258v-2.10526315z" fill="#64748B" transform="translate(3 1)"/>
</svg>